<svg width="209" height="38" viewBox="0 0 209 38" fill="none" xmlns="http://www.w3.org/2000/svg">
<path d="M14.5986 1.10865C17.113 1.14831 19.2414 1.45792 20.984 2.03747C22.7268 2.58636 24.1135 3.49766 25.1441 4.77138C26.2056 6.01493 26.9715 7.71385 27.4417 9.86816C27.9122 11.9918 28.1323 14.6482 28.102 17.8374C28.0717 21.0266 27.801 23.6906 27.29 25.8294C26.7793 27.9376 25.9814 29.6119 24.8962 30.8522C23.842 32.0624 22.4384 32.9297 20.6854 33.4541C18.9327 33.9478 16.7991 34.1748 14.2848 34.1352C11.7704 34.0955 9.64182 33.8012 7.89899 33.2523C6.15645 32.6728 4.75441 31.7612 3.69287 30.5177C2.63162 29.2435 1.86575 27.5446 1.39525 25.4209C0.925045 23.2666 0.705097 20.5949 0.735407 17.4057C0.765716 14.2165 1.03623 11.5678 1.54694 9.45964C2.05795 7.32081 2.85588 5.64655 3.94074 4.43687C5.02589 3.19653 6.44483 2.32949 8.19757 1.83575C9.9506 1.31135 12.0843 1.06898 14.5986 1.10865ZM14.5457 6.6744C12.9206 6.64876 11.645 6.95067 10.719 7.58013C9.8237 8.21007 9.16914 9.31919 8.75537 10.9075C8.37255 12.4656 8.16759 14.6706 8.14049 17.5225C8.11367 20.3437 8.27667 22.5545 8.62947 24.1549C9.01293 25.7558 9.64621 26.8852 10.5293 27.5432C11.4431 28.2017 12.7125 28.5438 14.3377 28.5694C15.9321 28.5946 17.177 28.2922 18.0724 27.6622C18.9984 27.0328 19.6529 25.9236 20.036 24.3349C20.4498 22.7465 20.6701 20.5418 20.6969 17.7206C20.724 14.8687 20.5457 12.6577 20.1619 11.0875C19.8091 9.48705 19.1759 8.35761 18.2621 7.69913C17.379 7.04113 16.1402 6.69955 14.5457 6.6744ZM60.4707 2.47641L60.1931 31.6851C60.1771 33.3717 59.3259 34.2017 57.6394 34.1751L53.7759 34.1141C53.0093 34.102 52.4283 33.9242 52.0329 33.5806C51.6378 33.2063 51.2749 32.6638 50.9444 31.9532L42.3177 15.1634C41.9564 14.4523 41.5959 13.6645 41.2361 12.8001C40.907 11.9361 40.6236 11.1036 40.3858 10.3024L39.8799 10.2944C39.964 11.1238 40.0327 11.9683 40.0858 12.8279C40.1393 13.6569 40.1621 14.4853 40.1542 15.3133L39.9776 33.8964L33.3084 33.7912L33.586 4.58253C33.6021 2.89594 34.4686 2.06619 36.1858 2.09328L40.0033 2.15351C40.7392 2.16512 41.2894 2.35782 41.6538 2.7316C42.0492 3.07521 42.4276 3.60257 42.7888 4.31367L51.1443 20.5932C51.5056 21.3043 51.8814 22.0923 52.2719 22.9572C52.6623 23.8221 53.0372 24.7175 53.3964 25.6432L53.9483 25.6519C53.8651 24.7305 53.7969 23.84 53.7437 22.9804C53.7215 22.0907 53.7145 21.2165 53.7226 20.3578L53.8476 2.37192L60.4707 2.47641Z" fill="white"/>
<path d="M91.4145 2.50454C94.8181 2.55823 97.5424 3.09193 99.5875 4.10563C101.663 5.11982 103.058 6.84399 103.77 9.27816C104.514 11.7128 104.559 15.0719 103.905 19.3553C103.414 22.5679 102.776 25.2261 101.989 27.3299C101.233 29.4036 100.236 31.0134 98.9989 32.1593C97.7923 33.275 96.2667 34.0637 94.4223 34.5253C92.5781 34.9563 90.3376 35.151 87.7006 35.1094C85.1862 35.0697 82.8256 34.9865 80.6188 34.8596C78.4426 34.7333 76.3432 34.5928 74.3206 34.4382L78.5191 28.2938C79.5914 28.4027 80.9705 28.5012 82.6564 28.5891C84.3732 28.6469 86.0442 28.6886 87.6693 28.7142C88.6812 28.7302 89.5716 28.6215 90.3405 28.3883C91.1097 28.1244 91.7738 27.6288 92.3327 26.9016C92.8916 26.1743 93.3768 25.1392 93.7882 23.7962C94.1997 22.4532 94.5536 20.7106 94.8499 18.5684C95.1446 16.6102 95.3132 15.0027 95.3558 13.7459C95.3984 12.4891 95.2851 11.5059 95.0158 10.7962C94.7465 10.0866 94.2911 9.60399 93.6495 9.34851C93.0082 9.06236 92.151 8.91083 91.0778 8.89389C90.0353 8.87745 88.9927 8.861 87.9502 8.84455C86.9383 8.82859 85.9571 8.81311 85.0065 8.79811C84.056 8.78312 83.1668 8.76909 82.3389 8.75603L79.0837 2.77005C80.2497 2.69644 81.5077 2.63961 82.8574 2.59956C84.2074 2.52885 85.6032 2.48953 87.0446 2.4816C88.5167 2.47416 89.9734 2.4818 91.4145 2.50454ZM87.6846 2.90574L82.9215 34.5739L74.3206 34.4382L79.0837 2.77005L87.6846 2.90574ZM129.749 3.56935C130.423 3.58 131.019 3.81942 131.536 4.28762C132.083 4.75631 132.4 5.3287 132.485 6.00479L136.714 35.4226L128.067 35.2862L125.976 13.2629C125.921 12.6793 125.88 12.1112 125.855 11.5588C125.86 11.0068 125.865 10.4548 125.87 9.90284L124.582 9.88252C124.455 10.3406 124.312 10.8597 124.154 11.4399C123.995 12.0201 123.79 12.5843 123.539 13.1324L114.637 35.0743L105.668 34.9328L118.736 5.46584C118.988 4.79507 119.376 4.29514 119.901 3.96605C120.456 3.60677 121.086 3.4327 121.792 3.44382L129.749 3.56935ZM131.51 21.493L130.714 27.8751L114.156 27.6139L114.998 21.2325L131.51 21.493ZM160.297 3.40722C162.013 3.46498 163.821 3.61618 165.72 3.86083C167.65 4.10596 169.471 4.51806 171.183 5.09713L170.394 10.6513C169.444 10.6056 168.371 10.5733 167.175 10.5545C165.979 10.5049 164.753 10.4703 163.496 10.4504C162.239 10.3999 160.982 10.3648 159.725 10.3449C159.081 10.3348 158.513 10.3565 158.022 10.4101C157.562 10.4335 157.162 10.5192 156.824 10.6672C156.516 10.785 156.269 10.9805 156.082 11.2536C155.895 11.5266 155.754 11.8925 155.658 12.351C155.623 12.7491 155.65 13.1023 155.739 13.4104C155.829 13.7185 156.041 13.9979 156.376 14.2485C156.741 14.4996 157.26 14.7992 157.931 15.1471L163.427 17.7181C165.137 18.5118 166.417 19.3601 167.267 20.2629C168.147 21.1663 168.705 22.2025 168.939 23.3716C169.204 24.5413 169.237 25.9066 169.038 27.4676C168.709 29.8547 168.078 31.7003 167.146 33.0044C166.244 34.3089 164.901 35.2079 163.118 35.7011C161.334 36.1944 158.971 36.4178 156.027 36.3713C154.77 36.3515 153.085 36.2176 150.971 35.9695C148.857 35.7522 146.622 35.3335 144.267 34.7136L145.152 28.701C146.93 28.7597 148.524 28.8308 149.934 28.9144C151.375 28.9678 152.586 29.0176 153.567 29.0637C154.548 29.0792 155.253 29.0904 155.682 29.0971C156.817 29.115 157.707 29.0677 158.352 28.9552C159.028 28.8432 159.52 28.6363 159.83 28.3345C160.17 28.0025 160.389 27.5612 160.486 27.0107C160.583 26.5215 160.587 26.1382 160.497 25.8607C160.408 25.5833 160.211 25.3348 159.906 25.1153C159.602 24.8958 159.175 24.6591 158.625 24.4051L152.718 21.5976C151.039 20.743 149.76 19.8334 148.879 18.8687C148.03 17.9046 147.488 16.8532 147.253 15.7148C147.019 14.5456 146.985 13.2876 147.151 11.9408C147.382 10.1962 147.81 8.76148 148.434 7.63654C149.089 6.51208 149.94 5.65143 150.989 5.05457C152.068 4.42753 153.376 3.98811 154.911 3.73631C156.478 3.48499 158.273 3.3753 160.297 3.40722ZM190.407 4.52633L185.644 36.1945L176.997 36.0581L181.761 4.38991L190.407 4.52633ZM198.345 16.3828L197.365 22.67L187.384 22.5125L188.272 16.2239L198.345 16.3828ZM208.253 4.80787L203.49 36.4761L194.843 36.3396L199.606 4.67145L208.253 4.80787Z" fill="#7499D1"/>
</svg>
